<svg id="e94cff1c-070e-4352-8eee-f869d5733252" data-name="Layer 1" xmlns="http://www.w3.org/2000/svg" width="973.12236" height="762" viewBox="0 0 973.12236 762"><title>share_online</title><path d="M389.988,226a40.97759,40.97759,0,0,1-46.44867,40.63313,3.32076,3.32076,0,0,1-.57188-.08634,36.97094,36.97094,0,0,1-4.40205-.89547c-.96028-.23741-1.899-.52868-2.82691-.85241a41.00051,41.00051,0,1,1,49.02738-58.835,39.66608,39.66608,0,0,1,2.9995,6.68949,40.10747,40.10747,0,0,1,1.83422,7.72523,36.99828,36.99828,0,0,1,.36681,4.26186C389.97723,225.09366,389.988,225.53606,389.988,226Z" transform="translate(-113.43882 -69)" fill="#2f2e41"/><path d="M206.488,416.5l-32,13s-58-17-47,0,50,11,50,11l49-11Z" transform="translate(-113.43882 -69)" fill="#a0616a"/><path d="M375.488,583.5l3,54s0,61,4,83,11,60,11,60l19-2s-2-43,0-54,0-80,0-80l3-63Z" transform="translate(-113.43882 -69)" fill="#a0616a"/><path d="M457.488,574.5l17,58s11,66,26,96l9,29,25-4-10-41-15-82-11-73Z" transform="translate(-113.43882 -69)" fill="#a0616a"/><path d="M413.488,765.5s-15-2-24,5c0,0,3,54,7,55s31,7,32,0-8-22-8-22Z" transform="translate(-113.43882 -69)" fill="#2f2e41"/><path d="M505.488,752.5s5,15,3,17-10,25-5,28,30,15,33,24,46,10,42,2-30-31-30-31l-14-44Z" transform="translate(-113.43882 -69)" fill="#2f2e41"/><circle cx="249.04921" cy="171.5" r="31" fill="#a0616a"/><path d="M339.988,255l-15,43,51,8s-9-41-3-51S339.988,255,339.988,255Z" transform="translate(-113.43882 -69)" fill="#a0616a"/><path d="M509.488,543.5c-1.83015,33.8577-55.57651,37.57049-64.69236,37.95692a1.62114,1.62114,0,0,1-1.63789-1.20713l-10.47761-39.66527a1.623,1.623,0,0,0-3.19214.4145v39.37382a1.639,1.639,0,0,1-1.06108,1.52859c-63.03825,23.59362-88.7124-12.39139-91.65016-16.93817a1.60584,1.60584,0,0,1-.24975-.99166L347.148,420.11l.34-4.61c-.24-.12-.48-.25-.73-.4-20.4046-11.83223-48.857-95.36138-52.808-107.20469a1.6191,1.6191,0,0,1,.88182-1.99256l25.23237-11.21438a1.623,1.623,0,0,0,.68407-.57216l9.43029-13.90542a1.61869,1.61869,0,0,1,2.59449-.12006c3.3875,4.12929,11.449,11.47273,13.957,13.7302a1.6138,1.6138,0,0,0,1.701.2893l23.47145-9.70157a1.62294,1.62294,0,0,1,.69813-.1212l31.34111,1.51118a19.2257,19.2257,0,0,1,17.81057,14.894l19.68107,85.56988a1.5657,1.5657,0,0,0,.1725.44143c.13639.23573.38967.67289.75212,1.29608.95,1.64,2.64,4.6,4.88,8.59C463.94805,426.25,511.13805,513.03,509.488,543.5Z" transform="translate(-113.43882 -69)" fill="#2f2e41"/><path d="M302.988,311l-8-5s-18,11-18,21-24,49-24,49l-52,41,28,23,93-67Z" transform="translate(-113.43882 -69)" fill="#2f2e41"/><rect x="112.54921" y="760" width="860.57315" height="2" fill="#3f3d56"/><circle cx="203.26921" cy="120.52" r="14.28" fill="#2f2e41"/><path d="M299.708,187.48a14.27833,14.27833,0,0,1,12.92-14.21135c-.448-.04238-.90084-.06865-1.36-.06865a14.28,14.28,0,0,0,0,28.56c.45916,0,.912-.02627,1.36-.06865A14.27836,14.27836,0,0,1,299.708,187.48Z" transform="translate(-113.43882 -69)" fill="#2f2e41"/><path d="M382.36048,223.65l5.928,2.15565c1.837-1.15322,5.93394-3.43223,6.09212-3.52262-.37283-2.79035-4.80712-16.87865-6.06115-19.09291-8.1-2.84689-16.33556-5.4339-24.831-6.57491-9.7381-1.32175-19.95065-.66656-28.87538,3.46821-8.91343,4.1234-16.34687,12.06529-18.39164,21.66782-1.00545,4.69957-.82473,9.90758-3.649,13.79378a11.1527,11.1527,0,0,1-1.977,2.07863,47.55939,47.55939,0,0,0,15.25108,21.43063,47.04122,47.04122,0,0,0,13.52266,7.52383l.6778.23727c0-.04523-.01131-.10171-.01131-.14687-.03385-.32766-.05647-.65525-.09032-.98284-.16949-1.88667-.35021-3.75065-.5197-5.63724-.192-2.21426-.38413-4.51884.4293-6.58623.82467-2.06739,2.98245-3.78457,5.15147-3.32135,2.18033.46315,3.28743,3.79581,1.446,5.03853,2.3272,1.84137,5.8632,1.27651,8.26949-.4406,2.41759-1.72849,3.99921-4.33812,5.64855-6.80087,6.56823-9.83428,16.11807-14.33,25.96924-20.87713Z" transform="translate(-113.43882 -69)" fill="#2f2e41"/><path d="M347.148,420.11l.34-4.61c-.24-.12-.48-.25-.73-.4,20.59-5.08,76.34-19.14,95.6-27.1.95,1.64,2.64,4.6,4.88,8.59C422.988,401.95,367.938,414.28,347.148,420.11Z" transform="translate(-113.43882 -69)" fill="#cfcce0"/><rect x="119.04099" y="450.00298" width="232" height="113" transform="translate(-55.18238 -92.15423) rotate(6.43595)" fill="#3f3d56"/><path d="M225.22786,523.92866C228.74627,546.918,247.8586,563.066,247.8586,563.066s13.40787-21.12506,9.88947-44.11439-22.63074-39.13733-22.63074-39.13733S221.70945,500.93933,225.22786,523.92866Z" transform="translate(-113.43882 -69)" fill="#fff"/><path d="M234.63652,520.13463c14.7414,17.98832,13.96872,42.99717,13.96872,42.99717s-24.67321-4.156-39.4146-22.14431-13.96872-42.99717-13.96872-42.99717S219.89513,502.14631,234.63652,520.13463Z" transform="translate(-113.43882 -69)" fill="#6c63ff"/><polygon points="283.549 269 295.549 314 273.549 348 283.549 314 283.549 269" opacity="0.1"/><path d="M330.988,276s-11,16-9,18,25,6,25,6v-6Z" transform="translate(-113.43882 -69)" fill="#cfcce0"/><path d="M371.988,276s11,16,9,18-34,6-34,6v-6Z" transform="translate(-113.43882 -69)" fill="#cfcce0"/><circle cx="315.54921" cy="462" r="6" fill="#cfcce0"/><circle cx="308.54921" cy="439" r="6" fill="#cfcce0"/><circle cx="302.54921" cy="416" r="6" fill="#cfcce0"/><circle cx="296.54921" cy="392" r="6" fill="#cfcce0"/><circle cx="288.54921" cy="369" r="6" fill="#cfcce0"/><path d="M396.488,419.5l-33,28s-36,31-20,39,35-32,35-32l44-32Z" transform="translate(-113.43882 -69)" fill="#a0616a"/><path d="M407.488,289.5h0a17.52884,17.52884,0,0,1,18.72636,6.43664A48.669,48.669,0,0,1,432.488,306.5c3,8,9,125,9,125l-55-8,21-41Z" transform="translate(-113.43882 -69)" fill="#2f2e41"/><path d="M584.31284,382.33071" transform="translate(-113.43882 -69)" fill="none" stroke="#3f3d56" stroke-miterlimit="10" stroke-width="2"/><path d="M584.31284,472.47244" transform="translate(-113.43882 -69)" fill="none" stroke="#3f3d56" stroke-miterlimit="10" stroke-width="2"/><rect x="469.8744" y="403.47266" width="2" height="51.58984" fill="#3f3d56"/><path d="M911.27905,830.5918H631.08764a47.83536,47.83536,0,0,1-47.77442-47.78809V615.31445h2V782.80371a45.83275,45.83275,0,0,0,45.77442,45.78809H911.27905a45.83942,45.83942,0,0,0,45.78808-45.78809V612.917h2V782.80371A47.842,47.842,0,0,1,911.27905,830.5918Z" transform="translate(-113.43882 -69)" fill="#3f3d56"/><rect x="843.62831" y="403.61426" width="2" height="50.38477" fill="#3f3d56"/><path d="M958.06675,472.61417" transform="translate(-113.43882 -69)" fill="none" stroke="#3f3d56" stroke-miterlimit="10" stroke-width="2"/><path d="M958.06675,382.47244" transform="translate(-113.43882 -69)" fill="none" stroke="#3f3d56" stroke-miterlimit="10" stroke-width="2"/><path d="M959.06713,382.47266h-2V333.38525h3.13574a2.00344,2.00344,0,0,0,2.001-2.00146V245.3042a2.003,2.003,0,0,0-2.001-2.001h-3.13574V116.7749A45.83317,45.83317,0,0,0,911.27905,71H631.08764a45.8265,45.8265,0,0,0-45.77442,45.7749V382.33057h-2V116.7749A47.8288,47.8288,0,0,1,631.08764,69H911.27905a47.83546,47.83546,0,0,1,47.78808,47.7749V241.30322h1.13574a4.00562,4.00562,0,0,1,4.001,4.001v86.07959a4.00573,4.00573,0,0,1-4.001,4.00146h-1.13574Z" transform="translate(-113.43882 -69)" fill="#3f3d56"/><rect x="622.38287" y="24.99269" width="52.19216" height="10.59797" rx="2.54189" fill="#e6e8ec"/><circle cx="688.47775" cy="30.29168" r="6.01122" fill="#e6e8ec"/><path d="M935.66215,126.02746V786.68234a29.68545,29.68545,0,0,1-29.68488,29.67176H637.76515a29.63322,29.63322,0,0,1-29.6848-29.67176V126.02746a29.68361,29.68361,0,0,1,29.6848-29.68488h40.14336v5.15061A24.44269,24.44269,0,0,0,702.351,125.93571H838.75718a24.44263,24.44263,0,0,0,24.44244-24.44252V96.34258h42.77765A29.67523,29.67523,0,0,1,935.66215,126.02746Z" transform="translate(-113.43882 -69)" fill="#e6e8ec"/><rect x="541.54921" y="584" width="232" height="113" opacity="0.2"/><path d="M975.68354,473.63473H568.059v-92.315H975.68354Zm-405.22679-2.39779h402.829V383.71755h-402.829Z" transform="translate(-113.43882 -69)" fill="#3f3d56"/><rect x="486.99033" y="343.49105" width="45.55804" height="45.55804" fill="#6c63ff"/><path d="M639.99271,452.05461H592.03688V404.09877h47.95583Zm-45.558-2.39779h43.16025V406.49657H594.43467Z" transform="translate(-113.43882 -69)" fill="#3f3d56"/><rect x="602.08433" y="344.68994" width="213.40346" height="2.39779" fill="#3f3d56"/><rect x="602.08433" y="361.47448" width="213.40346" height="2.39779" fill="#3f3d56"/><rect x="602.08433" y="378.25902" width="213.40346" height="2.39779" fill="#3f3d56"/><path d="M975.68354,615.31438H568.059v-92.315H975.68354Zm-405.22679-2.39779h402.829v-87.5194h-402.829Z" transform="translate(-113.43882 -69)" fill="#3f3d56"/><rect x="897.75531" y="554.17069" width="45.55804" height="45.55804" transform="translate(1727.62985 1084.89942) rotate(-180)" fill="#6c63ff"/><path d="M951.70562,593.73425H903.74979V545.77842h47.95583Zm-45.558-2.39779h43.16025V548.17621H906.14758Z" transform="translate(-113.43882 -69)" fill="#3f3d56"/><rect x="501.37708" y="486.36959" width="213.40346" height="2.39779" fill="#3f3d56"/><rect x="501.37708" y="503.15413" width="213.40346" height="2.39779" fill="#3f3d56"/><rect x="501.37708" y="519.93867" width="213.40346" height="2.39779" fill="#3f3d56"/><rect x="551.28055" y="165.07955" width="213.40346" height="2.39779" fill="#3f3d56"/><rect x="551.28055" y="181.8641" width="213.40346" height="2.39779" fill="#3f3d56"/><rect x="551.28055" y="198.64864" width="213.40346" height="2.39779" fill="#3f3d56"/></svg>